<?xml version="1.0" encoding="iso-8859-1"?>
<!-- Generator: Adobe Illustrator 19.0.0, SVG Export Plug-In . SVG Version: 6.00 Build 0)  -->
<svg version="1.1" id="Capa_1" xmlns="http://www.w3.org/2000/svg" xmlns:xlink="http://www.w3.org/1999/xlink" x="0px" y="0px"
	 viewBox="0 0 54.501 54.501" style="enable-background:new 0 0 54.501 54.501;" xml:space="preserve">
<g>
	<g>
		<path d="M49.524,0.039c-0.472-0.134-0.968,0.091-1.177,0.532l-3.921,8.242c-3.29-5.172-8.942-8.313-15.175-8.313H25.25
			c-6.182,0-11.962,3.242-15.231,8.403L6.158,0.58C5.951,0.135,5.453-0.095,4.98,0.038C4.508,0.171,4.202,0.626,4.257,1.113
			L7.25,27.557v2.943c0,0.127,0.024,0.253,0.071,0.372l2.916,7.289l-0.485,7.525c-0.019,0.303,0.1,0.599,0.324,0.803l8.5,7.75
			c0.184,0.168,0.424,0.261,0.674,0.261h16c0.25,0,0.49-0.093,0.674-0.261l8.5-7.75c0.225-0.205,0.344-0.5,0.324-0.803l-0.485-7.524
			l2.916-7.289c0.047-0.118,0.071-0.244,0.071-0.372v-2.445l2.994-26.945C50.298,0.626,49.994,0.172,49.524,0.039z M45.25,30.308
			l-2.929,7.321c-0.055,0.139-0.079,0.287-0.069,0.436l0.469,7.271L34.863,52.5H19.638l-7.858-7.165l0.469-7.271
			c0.009-0.149-0.014-0.297-0.069-0.436L9.25,30.308v-0.864l8.919,6.371c0.26,0.186,0.593,0.235,0.897,0.135l3.963-1.321l3.07,2.631
			c0.375,0.321,0.927,0.321,1.302,0l2.996-2.568l3.406,1.703c0.32,0.16,0.703,0.137,1.002-0.063l10.445-6.963V30.308z
			 M45.368,26.887l-11.189,7.46l-3.481-1.741c-0.36-0.179-0.792-0.126-1.098,0.135l-2.849,2.442l-2.849-2.442
			c-0.184-0.158-0.416-0.241-0.651-0.241c-0.106,0-0.213,0.017-0.316,0.051l-4.017,1.339l-9.724-6.945L6.937,7.013l2.093,4.512
			c0.163,0.351,0.513,0.576,0.899,0.579c0.382,0.04,0.74-0.217,0.909-0.564C13.495,6.049,19.152,2.5,25.25,2.5h4.001
			c6.133,0,11.633,3.42,14.354,8.925c0.168,0.341,0.516,0.557,0.896,0.557c0.002,0,0.005,0,0.007,0
			c0.383-0.003,0.731-0.225,0.896-0.57L47.6,6.797L45.368,26.887z"/>
		<path d="M28.25,40.501h-3c-0.06,0-0.12,0.005-0.179,0.016l-6.484,1.179l0.357,1.968l6.396-1.163h2.819l6.395,1.163l0.357-1.968
			l-6.484-1.179C28.37,40.506,28.31,40.501,28.25,40.501z"/>
		<rect x="24.25" y="45.501" width="5" height="2"/>
		<path d="M39.034,23.525l-9,2c-0.37,0.082-0.662,0.366-0.753,0.733c-0.092,0.368,0.032,0.755,0.319,1.002l3.5,3
			c0.188,0.161,0.419,0.241,0.651,0.241c0.241,0,0.482-0.087,0.673-0.26l5.5-5c0.335-0.305,0.424-0.797,0.215-1.2
			C39.93,23.638,39.472,23.428,39.034,23.525z M33.731,28.167l-1.311-1.124l3.372-0.75L33.731,28.167z"/>
		<path d="M23.467,25.525l-9-2c-0.439-0.097-0.896,0.113-1.104,0.516c-0.209,0.403-0.121,0.896,0.215,1.2l5.5,5
			c0.19,0.173,0.432,0.26,0.673,0.26c0.231,0,0.463-0.08,0.651-0.241l3.5-3c0.288-0.247,0.411-0.634,0.319-1.002
			C24.129,25.891,23.837,25.607,23.467,25.525z M19.77,28.167l-2.061-1.873l3.372,0.75L19.77,28.167z"/>
	</g>
</g>
<g>
</g>
<g>
</g>
<g>
</g>
<g>
</g>
<g>
</g>
<g>
</g>
<g>
</g>
<g>
</g>
<g>
</g>
<g>
</g>
<g>
</g>
<g>
</g>
<g>
</g>
<g>
</g>
<g>
</g>
</svg>
